<?xml version="1.0" standalone="no"?>
<!DOCTYPE svg PUBLIC "-//W3C//DTD SVG 20010904//EN"
 "http://www.w3.org/TR/2001/REC-SVG-20010904/DTD/svg10.dtd">
<svg version="1.0" xmlns="http://www.w3.org/2000/svg"
 width="252.000000pt" height="252.000000pt" viewBox="0 0 252.000000 252.000000"
 preserveAspectRatio="xMidYMid meet">
<metadata>
Created by potrace 1.11, written by Peter Selinger 2001-2013
</metadata>
<g transform="translate(0.000000,252.000000) scale(0.100000,-0.100000)"
fill="#000000" stroke="none">
<path d="M1115 2501 c-254 -46 -454 -150 -641 -336 -169 -167 -275 -362 -331
-607 -12 -52 -16 -120 -16 -238 0 -175 10 -243 58 -386 34 -102 109 -248 161
-313 2 -2 22 13 45 34 37 33 45 37 80 31 51 -8 96 15 114 57 14 35 7 58 -40
122 -28 39 -79 170 -101 260 -10 44 -16 110 -16 180 0 157 28 271 99 415 49
99 70 128 146 207 49 51 98 95 109 99 11 3 28 14 39 25 25 25 145 85 189 94
19 4 40 11 45 15 6 4 22 10 38 14 15 3 27 11 27 16 0 14 387 13 392 -1 2 -6
42 -23 88 -38 82 -27 103 -36 182 -84 66 -40 173 -134 222 -197 83 -105 105
-145 146 -264 16 -44 33 -82 39 -84 7 -2 11 -34 11 -83 0 -78 0 -79 -25 -79
-30 0 -34 8 -66 145 -12 55 -30 111 -40 125 -9 14 -24 41 -33 60 -9 19 -24 47
-33 61 -10 14 -27 39 -38 55 -32 48 -161 171 -202 193 -21 12 -45 25 -53 30
-55 32 -109 55 -139 62 -20 4 -62 14 -94 23 -102 28 -346 19 -392 -15 -5 -4
-30 -12 -55 -19 -25 -7 -50 -16 -56 -21 -6 -5 -32 -20 -58 -34 -112 -60 -277
-220 -313 -305 -8 -19 -21 -42 -29 -51 -19 -21 -55 -133 -64 -199 -21 -151
-22 -176 -10 -258 17 -124 28 -159 82 -267 67 -133 187 -261 316 -337 44 -27
84 -48 90 -48 5 0 31 -10 57 -21 26 -12 80 -26 119 -32 115 -18 317 -11 371
13 11 5 42 16 69 25 27 9 60 25 74 35 13 11 30 20 37 20 13 0 88 54 150 109
122 108 214 275 256 465 14 63 30 86 60 86 17 0 19 -8 19 -79 0 -56 -4 -80
-13 -84 -8 -3 -22 -31 -32 -64 -95 -306 -335 -513 -685 -594 -81 -18 -261 -16
-345 4 -66 17 -88 24 -190 65 -22 9 -65 33 -96 54 -31 21 -65 38 -76 38 -10 0
-34 -15 -52 -34 -31 -32 -33 -37 -26 -84 6 -48 5 -52 -31 -92 l-38 -42 24 -19
c46 -36 241 -129 323 -154 298 -90 607 -66 882 68 233 114 431 310 549 544 87
175 119 317 119 533 0 216 -32 358 -119 533 -86 170 -238 347 -389 451 -256
178 -585 251 -890 197z m453 -467 c57 -20 121 -47 141 -60 20 -14 45 -30 56
-37 37 -23 185 -178 200 -210 9 -18 27 -52 40 -77 13 -25 24 -53 24 -62 1 -9
10 -38 21 -64 29 -67 32 -341 5 -424 -72 -221 -226 -405 -395 -473 -25 -10
-63 -27 -85 -37 -112 -51 -401 -54 -512 -4 -17 8 -36 14 -41 14 -13 0 -80 35
-142 75 -58 36 -169 147 -205 205 -40 62 -75 129 -75 142 0 5 -6 24 -14 41
-30 67 -45 284 -26 392 18 104 72 232 133 313 108 144 234 232 402 282 45 13
98 18 214 19 152 1 155 1 259 -35z"/>
<path d="M1115 1982 c-135 -47 -202 -88 -300 -187 -66 -66 -99 -108 -122 -155
-69 -145 -93 -284 -73 -428 17 -125 94 -290 167 -359 16 -15 34 -35 39 -43 8
-14 39 -36 128 -96 243 -160 599 -127 818 75 174 161 241 310 240 532 -1 124
-20 195 -88 329 -79 155 -232 277 -422 336 -63 19 -98 24 -192 23 -99 0 -126
-4 -195 -27z m320 -62 c96 -56 132 -114 145 -235 5 -44 13 -93 19 -109 15 -38
6 -63 -38 -111 -21 -22 -54 -69 -75 -103 -45 -74 -43 -79 44 -107 86 -28 193
-81 216 -106 38 -42 46 -69 51 -169 8 -134 14 -130 -223 -130 -100 0 -189 3
-198 6 -21 8 -21 40 0 48 9 3 43 6 77 6 66 0 97 17 97 54 0 12 5 28 10 36 14
23 43 0 51 -40 8 -40 23 -50 71 -50 27 0 40 5 48 19 17 34 11 85 -17 140 -28
53 -29 53 -138 97 -60 24 -116 44 -123 44 -8 0 -38 -20 -66 -45 -29 -25 -61
-45 -70 -45 -10 0 -41 20 -69 45 -29 25 -58 45 -67 45 -8 0 -49 -13 -90 -28
-165 -63 -186 -82 -196 -178 -8 -73 7 -94 66 -94 43 0 60 18 60 63 0 28 26 43
46 26 8 -6 14 -22 14 -35 0 -39 25 -54 90 -54 71 0 90 -6 90 -30 0 -10 -7 -21
-16 -24 -24 -9 -377 -7 -393 3 -21 13 -29 85 -20 169 7 66 13 80 41 110 34 34
112 75 222 113 92 33 96 40 58 94 -18 25 -32 50 -32 55 0 5 -22 35 -50 65 -54
60 -60 82 -35 142 8 19 15 56 15 82 0 76 18 120 73 178 61 65 113 84 207 79
45 -2 78 -11 105 -26z"/>
<path d="M1212 1846 c-49 -35 -82 -85 -82 -123 0 -32 1 -33 43 -33 41 0 164
37 189 57 22 17 60 22 81 12 27 -15 41 2 27 32 -6 13 -29 36 -51 52 -34 23
-49 27 -107 27 -54 -1 -74 -6 -100 -24z"/>
<path d="M1260 1266 c0 -3 11 -16 24 -30 l23 -26 27 21 c14 11 24 25 21 30 -6
9 -95 13 -95 5z"/>
<path d="M618 648 c-25 -26 -27 -33 -14 -40 26 -15 86 38 71 62 -11 17 -26 11
-57 -22z"/>
<path d="M441 593 c-8 -3 -90 -82 -183 -175 -201 -201 -205 -209 -138 -282 48
-51 73 -62 112 -47 30 11 350 326 361 356 6 15 -7 34 -60 87 -37 37 -70 68
-73 67 -3 0 -11 -3 -19 -6z"/>
</g>
</svg>
